<svg xmlns="http://www.w3.org/2000/svg" aria-hidden="true" style="position:absolute;width:0;height:0;overflow:hidden"><defs><symbol id="facebook" viewBox="0 0 32 32"><path d="M21.079 5.313H24V.225C23.496.156 21.763 0 19.744 0c-4.212 0-7.097 2.649-7.097 7.519V12H7.999v5.688h4.648V32h5.699V17.689h4.46l.708-5.688h-5.169V8.082c.001-1.644.444-2.769 2.735-2.769z"/></symbol><symbol id="instagram" viewBox="0 0 32 32"><path d="M31.916 9.408c-.075-1.7-.35-2.869-.744-3.882a7.803 7.803 0 0 0-1.85-2.838A7.867 7.867 0 0 0 26.49.844C25.471.45 24.308.175 22.608.1 20.895.019 20.351 0 16.007 0s-4.888.019-6.595.094c-1.7.075-2.869.35-3.882.744a7.803 7.803 0 0 0-2.838 1.85A7.867 7.867 0 0 0 .848 5.52C.454 6.539.179 7.702.104 9.402c-.081 1.713-.1 2.257-.1 6.601s.019 4.888.094 6.595c.075 1.7.35 2.869.744 3.882a7.895 7.895 0 0 0 1.85 2.838 7.867 7.867 0 0 0 2.832 1.844c1.019.394 2.182.669 3.882.744 1.706.075 2.25.094 6.595.094s4.888-.019 6.595-.094c1.7-.075 2.869-.35 3.882-.744a8.184 8.184 0 0 0 4.682-4.682c.394-1.019.669-2.182.744-3.882.075-1.707.094-2.251.094-6.595s-.006-4.889-.081-6.595zm-2.882 13.065c-.069 1.563-.331 2.407-.55 2.969a5.31 5.31 0 0 1-3.038 3.038c-.563.219-1.413.481-2.969.55-1.688.075-2.194.094-6.464.094s-4.782-.019-6.464-.094c-1.563-.069-2.407-.331-2.969-.55a4.926 4.926 0 0 1-1.838-1.194 4.974 4.974 0 0 1-1.194-1.838c-.219-.563-.481-1.413-.55-2.969-.075-1.688-.094-2.194-.094-6.464s.019-4.782.094-6.464c.069-1.563.331-2.407.55-2.969a4.868 4.868 0 0 1 1.2-1.838A4.974 4.974 0 0 1 6.586 3.55c.563-.219 1.413-.481 2.969-.55 1.688-.075 2.194-.094 6.464-.094 4.276 0 4.782.019 6.464.094 1.563.069 2.407.331 2.969.55a4.914 4.914 0 0 1 1.838 1.194 4.974 4.974 0 0 1 1.194 1.838c.219.563.481 1.413.55 2.969.075 1.688.094 2.194.094 6.464s-.019 4.77-.094 6.458z"/><path d="M16.006 7.783c-4.538 0-8.22 3.682-8.22 8.22s3.682 8.22 8.22 8.22 8.22-3.682 8.22-8.22-3.682-8.22-8.22-8.22zm0 13.552a5.333 5.333 0 0 1 0-10.664 5.333 5.333 0 0 1 0 10.664zM26.471 7.458a1.919 1.919 0 1 1-3.838 0 1.919 1.919 0 0 1 3.838 0z"/></symbol><symbol id="linkedin" viewBox="0 0 32 32"><path d="M31.992 32v-.001H32V20.263c0-5.741-1.236-10.164-7.948-10.164-3.227 0-5.392 1.771-6.276 3.449h-.093v-2.913h-6.364v21.364h6.627V21.42c0-2.785.528-5.479 3.977-5.479 3.399 0 3.449 3.179 3.449 5.657v10.401h6.62zM.528 10.636h6.635V32H.528V10.636zM3.843 0C1.722 0 0 1.721 0 3.843s1.721 3.879 3.843 3.879c2.121 0 3.843-1.757 3.843-3.879A3.846 3.846 0 0 0 3.843 0z"/></symbol><symbol id="logo" viewBox="0 0 39 32"><path d="m22.389 9.799-.749-.572a.572.572 0 0 0-.801.08L10.467 21.218l.16.177 2.569-2.369a.393.393 0 0 1-.239-.445c.018-.09.068-.172.14-.229a.403.403 0 0 1 .485-.011.39.39 0 0 1 .141.199l3.387-3.141a.29.29 0 0 1 .366 0l.172.126a.288.288 0 0 0 .384-.045l4.428-4.966a.466.466 0 0 0 .129-.374.467.467 0 0 0-.198-.341z"/><path d="M27.263 13.152a23.137 23.137 0 0 1-7.506 3.518 40.723 40.723 0 0 1-8.164 1.213c.056.406.155.805.297 1.19 1.556 1.407 13.273-.995 15.561-3.776.486-.578-.189-2.145-.189-2.145zM13.35 19.027a.387.387 0 0 1-.359-.241.393.393 0 0 1 .084-.424.39.39 0 1 1 .426.636.384.384 0 0 1-.15.028zM2.279 12.328l.092-.395 1.488.338c.123.227.199.476.223.732.028.272.011.546-.051.812a2.152 2.152 0 0 1-.492.995 1.963 1.963 0 0 1-.881.572 2.088 2.088 0 0 1-1.081.04 2.01 2.01 0 0 1-.955-.503 1.884 1.884 0 0 1-.543-.898 2.156 2.156 0 0 1 0-1.144c.061-.28.172-.547.326-.79.146-.22.342-.402.572-.532l.206.315a1.652 1.652 0 0 0-.756 1.11c-.071.296-.065.605.017.898.077.278.229.53.441.727.217.21.489.355.784.418.286.08.589.08.875 0 .274-.091.52-.25.715-.463.2-.23.338-.508.4-.807.094-.362.07-.745-.069-1.093l-1.31-.332zM5.517 8.729l-1.333 1.779.572 1.024-.263.355-2.117-3.862.246-.338 4.308.927-.269.355-1.144-.24zm-.377-.091-2.288-.515 1.144 2.054L5.14 8.638zM5.14 5.039l.343-.257L7.663 7.7l1.796-1.344.217.292-2.134 1.596L5.139 5.04zM8.744 2.654l.383-.172 1.51 3.307 2.042-.927.149.332-2.426 1.104-1.659-3.644zM16.285 3.97l.086.36-2.758.646-.915-3.902L15.375.45l.08.355-2.288.532.326 1.385 2.014-.475.086.355-2.02.469.343 1.447 2.369-.549zM20.215 4.112l-.955-1.259a2.847 2.847 0 0 1-.32 0l-1.076.034.04 1.27h-.423L17.349.152l1.522-.006c.43-.04.861.076 1.213.326a1.25 1.25 0 0 1 .469.996 1.32 1.32 0 0 1-.212.801 1.331 1.331 0 0 1-.664.486l1.001 1.339-.463.017zm-.401-1.882a.92.92 0 0 0 .292-.75.926.926 0 0 0-.337-.732 1.39 1.39 0 0 0-.898-.235l-1.087.04.069 2.002 1.064-.034c.325.012.643-.091.898-.292zM23.241 3.048l-.206 1.367-.418-.063.212-1.344L21.645.147l.446.069 1.013 2.437L24.82.633l.4.086-1.98 2.329zM28.9 2.808l.498.647-.217.172-.498-.664-.315.749-.24-.103.32-.749-.824.109v-.275l.812-.092-.503-.647.223-.172.441.652.309-.755.246.103-.292.767.824-.114v.28l-.784.092zM30.81 7.419a1.587 1.587 0 0 1-.246-.692l.338-.149c.025.227.099.445.217.641.128.219.294.413.492.572.204.195.464.321.744.36a.63.63 0 0 0 .644-.404.525.525 0 0 0 .025-.208 1.07 1.07 0 0 0-.137-.395 5.944 5.944 0 0 0-.349-.509c-.152-.2-.29-.41-.412-.629a1.153 1.153 0 0 1-.149-.538c0-.212.079-.416.223-.572.125-.151.289-.264.475-.326.207-.06.428-.06.635 0 .267.087.514.227.727.412.176.146.332.316.463.503.122.174.212.367.269.572l-.326.172a2.019 2.019 0 0 0-.252-.538 2.108 2.108 0 0 0-.383-.395 1.272 1.272 0 0 0-.738-.349.608.608 0 0 0-.537.234.482.482 0 0 0-.131.389c.013.144.06.283.137.406.08.132.194.303.349.509.153.195.291.402.412.618.095.164.148.349.154.538a.842.842 0 0 1-.223.572 1.018 1.018 0 0 1-.481.326 1.09 1.09 0 0 1-.635 0 2.114 2.114 0 0 1-.732-.412 2.595 2.595 0 0 1-.572-.709zM36.566 8.255l-.807-1.144.297-.212 1.859 2.655-.297.212-.807-1.144-2.986 2.088-.24-.349 2.981-2.105zM35.284 12.957a1.9 1.9 0 0 1 .572-.893 2.03 2.03 0 0 1 .938-.475 2.068 2.068 0 0 1 1.076.04c.337.111.638.309.875.572.246.284.414.627.486.995.095.362.095.742 0 1.104a1.967 1.967 0 0 1-.572.893 2.127 2.127 0 0 1-2.042.446 1.918 1.918 0 0 1-.875-.572 2.15 2.15 0 0 1-.486-.99 2.196 2.196 0 0 1 .029-1.121zm.75 1.82c.191.217.439.378.715.463.285.083.586.093.876.028s.559-.2.783-.395c.211-.194.367-.441.452-.715a1.836 1.836 0 0 0-.372-1.682 1.621 1.621 0 0 0-.738-.463 1.709 1.709 0 0 0-.881 0 1.581 1.581 0 0 0-.778.395 1.6 1.6 0 0 0-.452.721 1.71 1.71 0 0 0 0 .887c.063.284.199.546.395.761zM34.85 19.599l1.482-.572c0-.103.034-.206.063-.315l.28-1.035-1.213-.315.109-.406 3.867 1.035-.389 1.447c-.088.422-.323.8-.664 1.064a1.237 1.237 0 0 1-1.087.161 1.24 1.24 0 0 1-.978-1.208l-1.579.572.109-.429zm1.916.161a1.034 1.034 0 0 0 .636.498 1.022 1.022 0 0 0 .8-.115c.253-.203.425-.489.486-.807l.275-1.03-1.939-.521-.275 1.03a1.38 1.38 0 0 0 .017.944zM32.796 23.284l-.292-.223 1.716-2.26 3.192 2.42-1.659 2.191-.292-.223 1.402-1.848-1.144-.864-1.253 1.653-.286-.217 1.282-1.653-1.184-.898-1.482 1.922zM31.457 27.844l-.818.046v-.275l.818-.006-.441-.681.223-.143.435.687.355-.767.246.132-.389.721.818-.046v.28h-.83l.441.681-.223.143-.435-.687-.378.744-.24-.137.418-.692zM24.02 27.386l.692.383a1.784 1.784 0 0 1 1.144-.904c.227-.071.466-.096.704-.074.206.016.403.087.572.206a.9.9 0 0 1 .32.458c.069.226.057.469-.034.687a2.865 2.865 0 0 1-.572.795c.189.101.364.226.521.372a1 1 0 0 1 .235.395.761.761 0 0 1-.149.669c-.153.22-.381.377-.641.441a.996.996 0 0 1-.709 0c-.102-.044-.192-.11-.263-.195s-.122-.184-.149-.292a.776.776 0 0 1 .04-.572 2.74 2.74 0 0 1 .509-.704l-1.379-.767a2.704 2.704 0 0 0-.034.818h-.349a2.722 2.722 0 0 1 .114-.995l-.721-.4.149-.32zm.995.572 1.516.841a2.38 2.38 0 0 0 .486-.658.725.725 0 0 0 0-.515.618.618 0 0 0-.4-.429 1.146 1.146 0 0 0-.732 0 1.364 1.364 0 0 0-.893.744l.023.017zm2.151 2.288a.523.523 0 0 0 .046-.424.7.7 0 0 0-.183-.297 2.51 2.51 0 0 0-.475-.315 3.044 3.044 0 0 0-.452.572.571.571 0 0 0-.046.423.495.495 0 0 0 .251.304.64.64 0 0 0 .452 0 .677.677 0 0 0 .383-.269l.023.006zM17.045 31.797l.08-4.005h.406l-.063 3.204 1.625-2.666h.2l1.522 2.712.057-3.187h.406l-.074 4.005h-.349l-1.682-2.992-1.779 2.935-.349-.006zM15.055 27.609a1.945 1.945 0 0 1 .521 1.98 2.048 2.048 0 0 1-.543.933c-.254.25-.573.424-.921.503a2.22 2.22 0 0 1-1.11-.034 2.145 2.145 0 0 1-.961-.521 1.917 1.917 0 0 1-.532-.904 2.115 2.115 0 0 1 .572-2.014 1.98 1.98 0 0 1 .904-.515 2.197 2.197 0 0 1 1.104.034c.364.092.697.278.967.538zm-1.951-.2c-.28.065-.536.208-.738.412-.211.21-.361.473-.435.761-.08.286-.08.589 0 .875.067.279.212.532.418.732.215.211.481.362.772.441a1.8 1.8 0 0 0 .887 0c.28-.069.537-.211.744-.412.21-.211.36-.473.435-.761.08-.288.08-.593 0-.881a1.602 1.602 0 0 0-.423-.732 1.72 1.72 0 0 0-.778-.435 1.647 1.647 0 0 0-.881 0zM8.773 24.749l.154 1.573c.098.042.194.09.286.143l.933.538.629-1.11.372.212-2.002 3.45-1.304-.749a1.817 1.817 0 0 1-.858-.915 1.26 1.26 0 0 1 .126-1.087 1.31 1.31 0 0 1 .601-.572c.261-.108.55-.13.824-.063l-.166-1.682.406.263zm-.652 1.807a1.028 1.028 0 0 0-.738 1.288c.134.296.367.537.658.681l.921.532 1.001-1.716-.921-.532a1.412 1.412 0 0 0-.921-.28v.029zM5.386 22.065l.257-.257 1.974 2.031-2.861 2.792-1.905-1.968.263-.257 1.619 1.665.978-.99-1.419-1.476.275-.263 1.447 1.488 1.064-1.035-1.693-1.728zM1.135 19.817l.137-.79.269.04-.154.812.761-.28.092.252-.772.263.635.538-.183.206-.612-.572-.143.812-.275-.052.16-.812-.767.275-.086-.223.767-.269-.635-.532.189-.206.618.538z"/></symbol><symbol id="mail" viewBox="0 0 31 32"><path stroke-linecap="round" stroke-linejoin="round" stroke-width="1.333" d="M3.871 4.694h23.257c1.599 0 2.907 1.272 2.907 2.826v16.958c0 1.555-1.308 2.826-2.907 2.826H3.871c-1.599 0-2.907-1.272-2.907-2.826V7.52c0-1.555 1.308-2.826 2.907-2.826z"/><path stroke-linecap="round" stroke-linejoin="round" stroke-width="1.333" d="M28.421 7.925 15.5 17.616 2.579 7.925"/></symbol><symbol id="map" viewBox="0 0 32 32"><path stroke-linecap="round" stroke-linejoin="round" stroke-width="1.333" d="M29.333 13.273C29.333 22.819 16 31 16 31S2.667 22.818 2.667 13.273C2.667 6.495 8.637 1 16 1s13.333 5.495 13.333 12.273z"/><path stroke-linecap="round" stroke-linejoin="round" stroke-width="1.333" d="M16 19.333a5 5 0 1 0-.001-10.001A5 5 0 0 0 16 19.333z"/></symbol><symbol id="phone" viewBox="0 0 32 32"><path stroke-linecap="round" stroke-linejoin="round" stroke-width="1.333" d="M30.969 23.461v4.516a3.012 3.012 0 0 1-3.282 3.011 29.785 29.785 0 0 1-12.992-4.622 29.36 29.36 0 0 1-9.033-9.033A29.793 29.793 0 0 1 1.04 4.281 3.01 3.01 0 0 1 4.036.999h4.516a3.012 3.012 0 0 1 3.011 2.589 19.337 19.337 0 0 0 1.054 4.23 3.012 3.012 0 0 1-.677 3.176l-1.912 1.912a24.084 24.084 0 0 0 9.033 9.032l1.912-1.912a3.012 3.012 0 0 1 3.177-.677c1.366.51 2.785.863 4.23 1.054a3.01 3.01 0 0 1 2.589 3.056z"/></symbol><symbol id="twitter" viewBox="0 0 32 32"><path d="M32 6.078c-1.19.522-2.458.868-3.78 1.036a6.523 6.523 0 0 0 2.886-3.626 13.11 13.11 0 0 1-4.16 1.588A6.574 6.574 0 0 0 22.154 3c-3.632 0-6.556 2.948-6.556 6.562 0 .52.044 1.02.152 1.496-5.454-.266-10.28-2.88-13.522-6.862a6.605 6.605 0 0 0-.898 3.316 6.57 6.57 0 0 0 2.914 5.452 6.479 6.479 0 0 1-2.964-.808v.072c0 3.188 2.274 5.836 5.256 6.446a6.548 6.548 0 0 1-1.72.216 5.8 5.8 0 0 1-1.242-.112c.85 2.598 3.262 4.508 6.13 4.57a13.182 13.182 0 0 1-8.134 2.798c-.538 0-1.054-.024-1.57-.09A18.469 18.469 0 0 0 10.064 29c12.072 0 18.672-10 18.672-18.668 0-.29-.01-.57-.024-.848A13.087 13.087 0 0 0 32 6.078z"/></symbol><symbol id="close" viewBox="0 0 32 32"><path d="M32 3.223 28.777 0 16 12.777 3.223 0 0 3.223 12.777 16 0 28.777 3.223 32 16 19.223 28.777 32 32 28.777 19.223 16 32 3.223z"/></symbol><symbol id="menu" viewBox="0 0 48 32"><path d="M0 5.333V0h48v5.333H0zm0 13.334h48v-5.333H0v5.333zM0 32h48v-5.333H0V32z"/></symbol></defs></svg>