<svg aria-hidden="true" style="position: absolute; width: 0; height: 0; overflow: hidden;" version="1.1" xmlns="http://www.w3.org/2000/svg" xmlns:xlink="http://www.w3.org/1999/xlink">
<defs>
<symbol id="icon-facebook" viewBox="0 0 32 32">
<path d="M21.079 5.313h2.921v-5.088c-0.504-0.069-2.237-0.225-4.256-0.225-4.212 0-7.097 2.649-7.097 7.519v4.481h-4.648v5.688h4.648v14.312h5.699v-14.311h4.46l0.708-5.688h-5.169v-3.919c0.001-1.644 0.444-2.769 2.735-2.769z"></path>
</symbol>
<symbol id="icon-instagram" viewBox="0 0 32 32">
<path d="M31.916 9.408c-0.075-1.7-0.35-2.869-0.744-3.882-0.406-1.075-1.031-2.038-1.85-2.838-0.8-0.813-1.769-1.444-2.832-1.844-1.019-0.394-2.182-0.669-3.882-0.744-1.713-0.081-2.257-0.1-6.601-0.1s-4.888 0.019-6.595 0.094c-1.7 0.075-2.869 0.35-3.882 0.744-1.075 0.406-2.038 1.031-2.838 1.85-0.813 0.8-1.444 1.769-1.844 2.832-0.394 1.019-0.669 2.182-0.744 3.882-0.081 1.713-0.1 2.257-0.1 6.601s0.019 4.888 0.094 6.595c0.075 1.7 0.35 2.869 0.744 3.882 0.406 1.075 1.038 2.038 1.85 2.838 0.8 0.813 1.769 1.444 2.832 1.844 1.019 0.394 2.182 0.669 3.882 0.744 1.706 0.075 2.25 0.094 6.595 0.094s4.888-0.019 6.595-0.094c1.7-0.075 2.869-0.35 3.882-0.744 2.151-0.832 3.851-2.532 4.682-4.682 0.394-1.019 0.669-2.182 0.744-3.882 0.075-1.707 0.094-2.251 0.094-6.595s-0.006-4.889-0.081-6.595zM29.034 22.473c-0.069 1.563-0.331 2.407-0.55 2.969-0.538 1.394-1.644 2.5-3.038 3.038-0.563 0.219-1.413 0.481-2.969 0.55-1.688 0.075-2.194 0.094-6.464 0.094s-4.782-0.019-6.464-0.094c-1.563-0.069-2.407-0.331-2.969-0.55-0.694-0.256-1.325-0.663-1.838-1.194-0.531-0.519-0.938-1.144-1.194-1.838-0.219-0.563-0.481-1.413-0.55-2.969-0.075-1.688-0.094-2.194-0.094-6.464s0.019-4.782 0.094-6.464c0.069-1.563 0.331-2.407 0.55-2.969 0.256-0.694 0.663-1.325 1.2-1.838 0.519-0.531 1.144-0.938 1.838-1.194 0.563-0.219 1.413-0.481 2.969-0.55 1.688-0.075 2.194-0.094 6.464-0.094 4.276 0 4.782 0.019 6.464 0.094 1.563 0.069 2.407 0.331 2.969 0.55 0.694 0.256 1.325 0.662 1.838 1.194 0.531 0.519 0.938 1.144 1.194 1.838 0.219 0.563 0.481 1.413 0.55 2.969 0.075 1.688 0.094 2.194 0.094 6.464s-0.019 4.77-0.094 6.458z"></path>
<path d="M16.006 7.783c-4.538 0-8.22 3.682-8.22 8.22s3.682 8.22 8.22 8.22c4.539 0 8.22-3.682 8.22-8.22s-3.682-8.22-8.22-8.22zM16.006 21.335c-2.944 0-5.332-2.388-5.332-5.332s2.388-5.332 5.332-5.332c2.944 0 5.332 2.388 5.332 5.332s-2.388 5.332-5.332 5.332z"></path>
<path d="M26.471 7.458c0 1.060-0.859 1.919-1.919 1.919s-1.919-0.859-1.919-1.919c0-1.060 0.859-1.919 1.919-1.919s1.919 0.859 1.919 1.919z"></path>
</symbol>
<symbol id="icon-linkedin" viewBox="0 0 32 32">
<path d="M31.992 32v-0.001h0.008v-11.736c0-5.741-1.236-10.164-7.948-10.164-3.227 0-5.392 1.771-6.276 3.449h-0.093v-2.913h-6.364v21.364h6.627v-10.579c0-2.785 0.528-5.479 3.977-5.479 3.399 0 3.449 3.179 3.449 5.657v10.401h6.62z"></path>
<path d="M0.528 10.636h6.635v21.364h-6.635v-21.364z"></path>
<path d="M3.843 0c-2.121 0-3.843 1.721-3.843 3.843s1.721 3.879 3.843 3.879c2.121 0 3.843-1.757 3.843-3.879-0.001-2.121-1.723-3.843-3.843-3.843v0z"></path>
</symbol>
<symbol id="icon-Logo" viewBox="0 0 39 32">
<path d="M22.389 9.799l-0.749-0.572c-0.117-0.095-0.267-0.14-0.417-0.125s-0.288 0.089-0.384 0.205l-10.372 11.911 0.16 0.177 2.569-2.369c-0.086-0.034-0.156-0.098-0.2-0.179s-0.058-0.175-0.039-0.266c0.018-0.090 0.068-0.172 0.14-0.229s0.162-0.088 0.254-0.087c0.083 0 0.164 0.027 0.231 0.076s0.116 0.119 0.141 0.199l3.387-3.141c0.052-0.042 0.116-0.065 0.183-0.065s0.131 0.023 0.183 0.065l0.172 0.126c0.058 0.042 0.13 0.060 0.201 0.052s0.136-0.043 0.183-0.097l4.428-4.966c0.047-0.049 0.083-0.108 0.105-0.173s0.030-0.133 0.024-0.201c-0.006-0.068-0.028-0.133-0.062-0.192s-0.081-0.11-0.136-0.149z"></path>
<path d="M27.263 13.152c-2.27 1.615-4.813 2.807-7.506 3.519-2.673 0.68-5.409 1.086-8.164 1.213 0.056 0.406 0.155 0.805 0.297 1.19 1.556 1.407 13.273-0.995 15.561-3.776 0.486-0.578-0.189-2.145-0.189-2.145zM13.35 19.027c-0.077 0-0.152-0.023-0.216-0.066s-0.114-0.104-0.143-0.175-0.037-0.149-0.022-0.225c0.015-0.075 0.052-0.145 0.106-0.199s0.124-0.091 0.199-0.106c0.075-0.015 0.154-0.007 0.225 0.022s0.132 0.079 0.175 0.143 0.066 0.139 0.066 0.216c0.001 0.051-0.009 0.102-0.028 0.15s-0.048 0.091-0.084 0.127c-0.036 0.036-0.079 0.065-0.127 0.084s-0.098 0.029-0.15 0.028z"></path>
<path d="M2.279 12.328l0.092-0.395 1.487 0.338c0.123 0.227 0.199 0.476 0.223 0.732 0.028 0.272 0.011 0.546-0.051 0.812-0.074 0.369-0.244 0.712-0.492 0.995-0.236 0.267-0.541 0.465-0.881 0.572-0.351 0.108-0.724 0.122-1.081 0.040-0.358-0.077-0.689-0.252-0.955-0.503-0.262-0.242-0.451-0.553-0.543-0.898-0.103-0.374-0.103-0.77 0-1.144 0.061-0.28 0.172-0.547 0.326-0.79 0.146-0.22 0.342-0.402 0.572-0.532l0.206 0.315c-0.197 0.121-0.366 0.283-0.497 0.474s-0.218 0.408-0.259 0.636c-0.071 0.296-0.065 0.605 0.017 0.898 0.077 0.278 0.229 0.53 0.441 0.727 0.217 0.21 0.489 0.355 0.784 0.418 0.286 0.080 0.589 0.080 0.875 0 0.274-0.091 0.52-0.25 0.715-0.463 0.2-0.23 0.338-0.508 0.4-0.807 0.094-0.362 0.070-0.745-0.069-1.093l-1.31-0.332z"></path>
<path d="M5.517 8.729l-1.333 1.779 0.572 1.024-0.263 0.355-2.117-3.862 0.246-0.338 4.308 0.927-0.269 0.355-1.144-0.24zM5.14 8.638l-2.288-0.515 1.144 2.054 1.144-1.539z"></path>
<path d="M5.14 5.039l0.343-0.257 2.18 2.918 1.796-1.344 0.217 0.292-2.134 1.596-2.403-3.204z"></path>
<path d="M8.744 2.654l0.383-0.172 1.51 3.307 2.042-0.927 0.149 0.332-2.426 1.104-1.659-3.644z"></path>
<path d="M16.285 3.969l0.086 0.36-2.758 0.646-0.915-3.902 2.678-0.624 0.080 0.355-2.288 0.532 0.326 1.385 2.014-0.475 0.086 0.355-2.020 0.469 0.343 1.447 2.369-0.549z"></path>
<path d="M20.215 4.112l-0.955-1.259c-0.107 0.006-0.214 0.006-0.32 0l-1.076 0.034 0.040 1.27h-0.423l-0.132-4.005 1.522-0.006c0.43-0.040 0.861 0.076 1.213 0.326 0.149 0.12 0.268 0.271 0.349 0.444s0.122 0.361 0.12 0.552c0.017 0.283-0.057 0.563-0.212 0.801-0.164 0.228-0.397 0.398-0.664 0.486l1.001 1.339-0.463 0.017zM19.814 2.23c0.103-0.094 0.183-0.211 0.233-0.341s0.071-0.27 0.059-0.409c0.003-0.14-0.026-0.278-0.084-0.405s-0.145-0.239-0.253-0.327c-0.264-0.179-0.581-0.262-0.898-0.235l-1.087 0.040 0.069 2.002 1.064-0.034c0.325 0.012 0.643-0.091 0.898-0.292z"></path>
<path d="M23.241 3.048l-0.206 1.367-0.418-0.063 0.212-1.344-1.184-2.861 0.446 0.069 1.013 2.437 1.716-2.020 0.4 0.086-1.98 2.329z"></path>
<path d="M28.9 2.808l0.498 0.647-0.217 0.172-0.498-0.664-0.315 0.749-0.24-0.103 0.32-0.749-0.824 0.109v-0.275l0.812-0.092-0.503-0.647 0.223-0.172 0.441 0.652 0.309-0.755 0.246 0.103-0.292 0.767 0.824-0.114v0.28l-0.784 0.092z"></path>
<path d="M30.811 7.419c-0.135-0.208-0.219-0.445-0.246-0.692l0.338-0.149c0.025 0.227 0.099 0.445 0.217 0.641 0.128 0.219 0.294 0.413 0.492 0.572 0.204 0.195 0.464 0.321 0.744 0.36 0.101 0.009 0.203-0.006 0.297-0.045s0.177-0.1 0.241-0.178c0.047-0.052 0.084-0.114 0.106-0.181s0.031-0.138 0.025-0.208c-0.019-0.139-0.066-0.274-0.137-0.395-0.108-0.176-0.224-0.346-0.349-0.509-0.152-0.2-0.29-0.41-0.412-0.629-0.093-0.164-0.144-0.349-0.149-0.538-0-0.212 0.079-0.416 0.223-0.572 0.125-0.151 0.289-0.264 0.475-0.326 0.207-0.060 0.428-0.060 0.635 0 0.267 0.087 0.514 0.227 0.727 0.412 0.176 0.146 0.332 0.316 0.463 0.503 0.122 0.174 0.212 0.367 0.269 0.572l-0.326 0.172c-0.057-0.191-0.142-0.372-0.252-0.538-0.11-0.148-0.239-0.281-0.383-0.395-0.201-0.194-0.46-0.317-0.738-0.349-0.102-0.009-0.205 0.008-0.298 0.049s-0.176 0.105-0.239 0.185c-0.049 0.052-0.086 0.113-0.108 0.18s-0.031 0.138-0.023 0.209c0.013 0.144 0.060 0.283 0.137 0.406 0.080 0.132 0.194 0.303 0.349 0.509 0.153 0.195 0.291 0.402 0.412 0.618 0.095 0.164 0.148 0.349 0.154 0.538 0 0.212-0.079 0.416-0.223 0.572-0.125 0.153-0.292 0.266-0.481 0.326-0.207 0.063-0.428 0.063-0.635 0-0.269-0.087-0.518-0.227-0.732-0.412-0.231-0.201-0.425-0.441-0.572-0.709z"></path>
<path d="M36.566 8.255l-0.807-1.144 0.297-0.212 1.859 2.655-0.297 0.212-0.807-1.144-2.986 2.088-0.24-0.349 2.981-2.105z"></path>
<path d="M35.284 12.957c0.102-0.346 0.301-0.655 0.572-0.893 0.266-0.238 0.589-0.402 0.938-0.475 0.356-0.082 0.727-0.068 1.076 0.040 0.337 0.111 0.638 0.309 0.875 0.572 0.246 0.284 0.414 0.627 0.486 0.995 0.095 0.362 0.095 0.742 0 1.104-0.105 0.344-0.303 0.653-0.572 0.893-0.273 0.244-0.605 0.414-0.962 0.492s-0.73 0.062-1.080-0.046c-0.339-0.106-0.642-0.304-0.875-0.572-0.245-0.282-0.413-0.623-0.486-0.99-0.087-0.37-0.078-0.756 0.029-1.121zM36.034 14.777c0.191 0.217 0.439 0.378 0.715 0.463 0.285 0.083 0.586 0.093 0.876 0.028s0.559-0.2 0.783-0.395c0.211-0.194 0.367-0.441 0.452-0.715 0.080-0.289 0.088-0.594 0.023-0.887s-0.2-0.566-0.395-0.795c-0.199-0.219-0.455-0.379-0.738-0.463-0.289-0.077-0.592-0.077-0.881 0-0.291 0.056-0.561 0.193-0.778 0.395-0.213 0.195-0.369 0.444-0.452 0.721-0.078 0.29-0.078 0.596 0 0.887 0.063 0.284 0.199 0.546 0.395 0.761z"></path>
<path d="M34.85 19.599l1.482-0.572c0-0.103 0.034-0.206 0.063-0.315l0.28-1.036-1.213-0.315 0.109-0.406 3.867 1.036-0.389 1.447c-0.088 0.422-0.323 0.8-0.664 1.064-0.157 0.109-0.336 0.18-0.525 0.208s-0.381 0.012-0.562-0.047c-0.276-0.060-0.523-0.212-0.701-0.432s-0.276-0.493-0.277-0.776l-1.579 0.572 0.109-0.429zM36.766 19.76c0.067 0.122 0.158 0.228 0.267 0.314s0.235 0.148 0.369 0.184c0.134 0.036 0.274 0.044 0.412 0.024s0.269-0.067 0.388-0.139c0.253-0.203 0.425-0.489 0.486-0.807l0.275-1.030-1.939-0.521-0.275 1.030c-0.106 0.307-0.099 0.641 0.017 0.944z"></path>
<path d="M32.796 23.284l-0.292-0.223 1.716-2.26 3.192 2.42-1.659 2.191-0.292-0.223 1.402-1.848-1.144-0.864-1.253 1.653-0.286-0.217 1.282-1.653-1.184-0.898-1.482 1.922z"></path>
<path d="M31.457 27.844l-0.818 0.046v-0.275l0.818-0.006-0.441-0.681 0.223-0.143 0.435 0.687 0.355-0.767 0.246 0.132-0.389 0.721 0.818-0.046v0.28h-0.83l0.441 0.681-0.223 0.143-0.435-0.687-0.378 0.744-0.24-0.137 0.418-0.692z"></path>
<path d="M24.020 27.386l0.692 0.383c0.116-0.223 0.278-0.419 0.475-0.575s0.425-0.268 0.669-0.329c0.227-0.071 0.466-0.096 0.704-0.074 0.206 0.016 0.403 0.087 0.572 0.206 0.152 0.115 0.265 0.275 0.32 0.458 0.069 0.226 0.057 0.469-0.034 0.687-0.144 0.296-0.337 0.565-0.572 0.795 0.189 0.101 0.364 0.226 0.521 0.372 0.108 0.111 0.188 0.247 0.235 0.395 0.029 0.115 0.031 0.236 0.005 0.352s-0.079 0.225-0.154 0.317c-0.153 0.22-0.381 0.377-0.641 0.441-0.228 0.087-0.481 0.087-0.709 0-0.102-0.044-0.192-0.11-0.263-0.195s-0.122-0.184-0.149-0.292c-0.060-0.189-0.046-0.393 0.040-0.572 0.131-0.26 0.303-0.498 0.509-0.704l-1.379-0.767c-0.053 0.269-0.064 0.545-0.034 0.818h-0.349c-0.024-0.336 0.015-0.674 0.114-0.995l-0.721-0.4 0.149-0.32zM25.015 27.958l1.516 0.841c0.199-0.19 0.363-0.412 0.486-0.658 0.063-0.166 0.063-0.349 0-0.515-0.026-0.099-0.076-0.19-0.146-0.265s-0.157-0.131-0.254-0.164c-0.238-0.080-0.495-0.080-0.732 0-0.194 0.051-0.375 0.144-0.529 0.273s-0.278 0.289-0.364 0.471l0.023 0.017zM27.166 30.247c0.037-0.063 0.061-0.134 0.069-0.207s0-0.147-0.023-0.217c-0.035-0.113-0.098-0.215-0.183-0.297-0.146-0.123-0.305-0.228-0.475-0.315-0.173 0.172-0.325 0.364-0.452 0.572-0.069 0.13-0.086 0.282-0.046 0.423 0.018 0.065 0.050 0.126 0.093 0.179s0.097 0.095 0.158 0.125c0.146 0.055 0.306 0.055 0.452 0 0.156-0.041 0.291-0.137 0.383-0.269l0.023 0.006z"></path>
<path d="M17.045 31.797l0.080-4.005h0.406l-0.063 3.204 1.625-2.666h0.2l1.522 2.712 0.057-3.187h0.406l-0.074 4.005h-0.349l-1.682-2.992-1.779 2.935-0.349-0.006z"></path>
<path d="M15.055 27.609c0.262 0.249 0.449 0.566 0.541 0.916s0.085 0.718-0.020 1.064c-0.094 0.354-0.282 0.676-0.543 0.933-0.254 0.25-0.573 0.424-0.921 0.503-0.367 0.083-0.749 0.071-1.11-0.034-0.36-0.088-0.691-0.267-0.961-0.521-0.258-0.246-0.442-0.559-0.532-0.904-0.088-0.356-0.081-0.73 0.019-1.083s0.291-0.674 0.553-0.931c0.25-0.249 0.562-0.427 0.904-0.515 0.365-0.083 0.745-0.071 1.104 0.034 0.364 0.092 0.697 0.278 0.967 0.538zM13.104 27.409c-0.28 0.065-0.536 0.208-0.738 0.412-0.211 0.21-0.361 0.473-0.435 0.761-0.080 0.286-0.080 0.589 0 0.875 0.067 0.279 0.212 0.532 0.418 0.732 0.215 0.211 0.481 0.362 0.772 0.441 0.291 0.074 0.596 0.074 0.887 0 0.28-0.069 0.537-0.211 0.744-0.412 0.21-0.211 0.36-0.473 0.435-0.761 0.080-0.288 0.080-0.593 0-0.881-0.073-0.278-0.219-0.53-0.423-0.732-0.217-0.211-0.485-0.361-0.778-0.435-0.288-0.080-0.593-0.080-0.881 0z"></path>
<path d="M8.773 24.749l0.154 1.573c0.098 0.042 0.194 0.090 0.286 0.143l0.933 0.538 0.629-1.11 0.372 0.212-2.002 3.45-1.304-0.749c-0.386-0.194-0.69-0.518-0.858-0.915-0.062-0.179-0.083-0.37-0.061-0.558s0.086-0.369 0.187-0.529c0.133-0.251 0.344-0.451 0.601-0.572 0.261-0.108 0.55-0.13 0.824-0.063l-0.166-1.682 0.406 0.263zM8.12 26.556c-0.134 0.034-0.261 0.094-0.371 0.178s-0.203 0.189-0.272 0.309c-0.069 0.12-0.113 0.253-0.129 0.391s-0.005 0.277 0.034 0.41c0.134 0.296 0.367 0.537 0.658 0.681l0.921 0.532 1.001-1.716-0.921-0.532c-0.265-0.198-0.591-0.298-0.921-0.28v0.029z"></path>
<path d="M5.386 22.065l0.257-0.257 1.974 2.031-2.861 2.792-1.905-1.968 0.263-0.257 1.619 1.665 0.978-0.99-1.419-1.476 0.275-0.263 1.447 1.488 1.064-1.036-1.693-1.728z"></path>
<path d="M1.135 19.817l0.137-0.79 0.269 0.040-0.154 0.812 0.761-0.28 0.092 0.252-0.772 0.263 0.635 0.538-0.183 0.206-0.612-0.572-0.143 0.812-0.275-0.052 0.16-0.812-0.767 0.275-0.086-0.223 0.767-0.269-0.635-0.532 0.189-0.206 0.618 0.538z"></path>
</symbol>
<symbol id="icon-mail" viewBox="0 0 32 32">
<path stroke-linejoin="round" stroke-linecap="round" stroke-miterlimit="4" stroke-width="1.3333" d="M3.971 4.306h24.057c1.654 0 3.007 1.316 3.007 2.924v17.542c0 1.608-1.353 2.924-3.007 2.924h-24.057c-1.654 0-3.007-1.316-3.007-2.924v-17.542c0-1.608 1.353-2.924 3.007-2.924z"></path>
<path stroke-linejoin="round" stroke-linecap="round" stroke-miterlimit="4" stroke-width="1.3333" d="M29.365 7.647l-13.365 10.024-13.365-10.024"></path>
</symbol>
<symbol id="icon-map-pin" viewBox="0 0 32 32">
<path stroke-linejoin="round" stroke-linecap="round" stroke-miterlimit="4" stroke-width="1.3333" d="M29.111 13.318c0 9.386-13.111 17.432-13.111 17.432s-13.111-8.045-13.111-17.432c0-6.665 5.87-12.068 13.111-12.068s13.111 5.403 13.111 12.068v0z"></path>
<path stroke-linejoin="round" stroke-linecap="round" stroke-miterlimit="4" stroke-width="1.3333" d="M16 19.278c2.715 0 4.917-2.201 4.917-4.917s-2.201-4.917-4.917-4.917-4.917 2.201-4.917 4.917c0 2.715 2.201 4.917 4.917 4.917z"></path>
</symbol>
<symbol id="icon-phone" viewBox="0 0 32 32">
<path stroke-linejoin="round" stroke-linecap="round" stroke-miterlimit="4" stroke-width="1.3333" d="M30.969 23.461v4.516c0.003 0.848-0.351 1.658-0.976 2.231s-1.462 0.856-2.306 0.78c-4.632-0.503-9.082-2.086-12.992-4.622-3.637-2.311-6.721-5.395-9.033-9.033-2.544-3.927-4.128-8.399-4.622-13.052-0.076-0.842 0.205-1.677 0.775-2.301s1.376-0.98 2.221-0.981h4.516c1.511-0.015 2.799 1.093 3.011 2.589 0.191 1.445 0.544 2.864 1.054 4.23 0.413 1.1 0.149 2.341-0.677 3.176l-1.912 1.912c2.143 3.769 5.264 6.889 9.033 9.032l1.912-1.912c0.836-0.826 2.076-1.091 3.177-0.677 1.366 0.51 2.785 0.863 4.23 1.054 1.514 0.213 2.627 1.527 2.589 3.056z"></path>
</symbol>
<symbol id="icon-twitter" viewBox="0 0 32 32">
<path d="M32 6.078c-1.19 0.522-2.458 0.868-3.78 1.036 1.36-0.812 2.398-2.088 2.886-3.626-1.268 0.756-2.668 1.29-4.16 1.588-1.204-1.282-2.92-2.076-4.792-2.076-3.632 0-6.556 2.948-6.556 6.562 0 0.52 0.044 1.020 0.152 1.496-5.454-0.266-10.28-2.88-13.522-6.862-0.566 0.982-0.898 2.106-0.898 3.316 0 2.272 1.17 4.286 2.914 5.452-1.054-0.020-2.088-0.326-2.964-0.808 0 0.020 0 0.046 0 0.072 0 3.188 2.274 5.836 5.256 6.446-0.534 0.146-1.116 0.216-1.72 0.216-0.42 0-0.844-0.024-1.242-0.112 0.85 2.598 3.262 4.508 6.13 4.57-2.232 1.746-5.066 2.798-8.134 2.798-0.538 0-1.054-0.024-1.57-0.090 2.906 1.874 6.35 2.944 10.064 2.944 12.072 0 18.672-10 18.672-18.668 0-0.29-0.010-0.57-0.024-0.848 1.302-0.924 2.396-2.078 3.288-3.406z"></path>
</symbol>
</defs>
</svg>
